<svg width="960" height="520" viewBox="0 0 960 520" xmlns="http://www.w3.org/2000/svg">
  <rect width="960" height="520" fill="#ffffff"/>
  <text x="30" y="40" font-family="Helvetica, Arial, sans-serif" font-size="22" fill="#111">GlucoseStream — Patient Metrics (Mock)</text>

  <!-- Plot area -->
  <rect x="80" y="80" width="780" height="360" fill="#fbfbfb" stroke="#ddd" />

  <!-- Axes -->
  <line x1="80" y1="440" x2="860" y2="440" stroke="#444" stroke-width="1.5"/>
  <line x1="80" y1="80" x2="80" y2="440" stroke="#444" stroke-width="1.5"/>
  <!-- Right axis for % -->
  <line x1="860" y1="80" x2="860" y2="440" stroke="#888" stroke-dasharray="4 4" stroke-width="1"/>

  <!-- Y-left ticks (mg/dL: 60 to 200) -->
  <g font-family="Helvetica, Arial, sans-serif" font-size="11" fill="#333">
    <g>
      <line x1="80" y1="400" x2="860" y2="400" stroke="#eee"/>
      <text x="50" y="404">80</text>
    </g>
    <g>
      <line x1="80" y1="360" x2="860" y2="360" stroke="#eee"/>
      <text x="44" y="364">100</text>
    </g>
    <g>
      <line x1="80" y1="320" x2="860" y2="320" stroke="#eee"/>
      <text x="44" y="324">120</text>
    </g>
    <g>
      <line x1="80" y1="280" x2="860" y2="280" stroke="#eee"/>
      <text x="44" y="284">140</text>
    </g>
    <g>
      <line x1="80" y1="240" x2="860" y2="240" stroke="#eee"/>
      <text x="44" y="244">160</text>
    </g>
    <g>
      <line x1="80" y1="200" x2="860" y2="200" stroke="#eee"/>
      <text x="44" y="204">180</text>
    </g>
    <g>
      <line x1="80" y1="160" x2="860" y2="160" stroke="#eee"/>
      <text x="44" y="164">200</text>
    </g>
  </g>
  <text x="22" y="80" transform="rotate(-90 22,80)" font-size="12" fill="#333">mg/dL</text>

  <!-- Y-right ticks (%: 0 to 100) -->
  <g font-family="Helvetica, Arial, sans-serif" font-size="11" fill="#333">
    <text x="868" y="444">0%</text>
    <text x="868" y="404">20%</text>
    <text x="868" y="364">40%</text>
    <text x="868" y="324">60%</text>
    <text x="868" y="284">80%</text>
    <text x="868" y="244">100%</text>
  </g>

  <!-- X-axis ticks (days) -->
  <g font-family="Helvetica, Arial, sans-serif" font-size="11" fill="#333">
    <text x="120" y="458">D-11</text>
    <text x="200" y="458">D-10</text>
    <text x="280" y="458">D-9</text>
    <text x="360" y="458">D-8</text>
    <text x="440" y="458">D-7</text>
    <text x="520" y="458">D-6</text>
    <text x="600" y="458">D-5</text>
    <text x="680" y="458">D-4</text>
    <text x="760" y="458">D-3</text>
    <text x="820" y="458">D-2</text>
  </g>
  <text x="430" y="480" font-size="12" fill="#333">Date</text>

  <!-- Mean Glucose line (mapped to left axis) -->
  <polyline fill="none" stroke="#1f77b4" stroke-width="3"
    points="100,320 160,310 220,318 280,306 340,302 400,298 460,306 520,310 580,306 640,302 700,298 760,294"/>
  <text x="770" y="292" font-size="12" fill="#1f77b4">Mean (mg/dL)</text>

  <!-- TIR line (mapped to right axis: 0%=440, 100%=240) -->
  <polyline fill="none" stroke="#2ca02c" stroke-width="3" stroke-dasharray="4 2"
    points="100,360 160,352 220,354 280,348 340,350 400,346 460,348 520,342 580,344 640,340 700,338 760,336"/>
  <text x="770" y="336" font-size="12" fill="#2ca02c">TIR (%)</text>

  <!-- CV line (dimensionless, drawn on left axis range for illustration) -->
  <polyline fill="none" stroke="#ff7f0e" stroke-width="3"
    points="100,220 160,224 220,222 280,216 340,212 400,210 460,208 520,206 580,204 640,202 700,200 760,198"/>
  <text x="770" y="198" font-size="12" fill="#ff7f0e">CV</text>

  <!-- Notes -->
  <text x="80" y="520" font-size="11" fill="#555">Note: Mock visualization showing lower CV and stable TIR alongside mean glucose.</text>
</svg>

